<?xml version="1.0" standalone="no"?><!DOCTYPE svg PUBLIC "-//W3C//DTD SVG 1.1//EN" "http://www.w3.org/Graphics/SVG/1.1/DTD/svg11.dtd"><svg class="icon" style="" viewBox="0 0 1024 1024" version="1.1" xmlns="http://www.w3.org/2000/svg" p-id="7575" xmlns:xlink="http://www.w3.org/1999/xlink" width="200" height="200"><defs><style type="text/css"><![CDATA[

]]></style></defs><path d="M511.68 65.088C264.128 65.088 65.088 263.552 65.088 510.4 65.088 757.184 264.128 958.208 511.68 958.208 759.168 958.208 958.208 757.184 958.208 510.4 958.208 263.552 759.168 65.088 511.68 65.088L511.68 65.088 511.68 65.088ZM299.84 244.48 352.192 207.616 373.888 213.952 461.888 341.184 459.328 361.536 408.32 397.184C385.344 416.256 400.64 440.384 417.216 486.208 432.576 512.896 467.008 566.336 489.984 586.688 529.536 619.776 547.392 641.408 574.144 626.176L622.656 591.808 641.792 594.368 733.632 717.76 731.072 739.392 681.344 777.536C634.112 791.552 518.016 814.464 373.888 610.88 210.56 390.784 275.648 266.112 299.84 244.48L299.84 244.48Z" p-id="7576" fill="#1afa29"></path></svg>