<?xml version="1.0" standalone="no"?><!DOCTYPE svg PUBLIC "-//W3C//DTD SVG 1.1//EN" "http://www.w3.org/Graphics/SVG/1.1/DTD/svg11.dtd"><svg width="206.4453125" height="200" viewBox="0 0 206.4453125 200" version="1.1" xmlns="http://www.w3.org/2000/svg" xmlns:xlink="http://www.w3.org/1999/xlink"><defs><style type="text/css"><![CDATA[
@font-face { font-family: ifont; src: url("//at.alicdn.com/t/font_1442373896_4754455.eot?#iefix") format("embedded-opentype"), url("//at.alicdn.com/t/font_1442373896_4754455.woff") format("woff"), url("//at.alicdn.com/t/font_1442373896_4754455.ttf") format("truetype"), url("//at.alicdn.com/t/font_1442373896_4754455.svg#ifont") format("svg"); }

]]></style></defs><g class="transform-group"><g transform="scale(0.1953125, 0.1953125)"><path d="M725.037774 348.599624c0-108.302227-88.216713-196.089961-197.035723-196.089961-108.816501 0-197.025688 87.787734-197.025688 196.089961 0 108.29721 88.207933 196.082435 197.025688 196.082435C636.821061 544.680805 725.037774 456.89558 725.037774 348.599624L725.037774 348.599624zM374.754832 348.599624c0-84.219178 68.607842-152.515947 153.247219-152.515947 84.639377 0 153.248473 68.298024 153.248473 152.515947 0 84.227958-68.609097 152.505913-153.248473 152.505913C443.362675 501.105537 374.754832 432.827582 374.754832 348.599624L374.754832 348.599624zM878.286247 348.599624c0-192.515133-156.817029-348.599637-350.284196-348.599637-193.468421 0-350.284196 156.084503-350.284196 348.599637 0 192.503845 350.284196 610.036194 350.284196 610.036194S878.286247 541.103469 878.286247 348.599624L878.286247 348.599624zM528.002051 43.566475c169.26621 0 306.506981 136.559672 306.506981 305.033149 0 168.467205-306.506981 544.683326-306.506981 544.683326S221.506359 517.05554 221.506359 348.599624C221.506359 180.126148 358.744622 43.566475 528.002051 43.566475L528.002051 43.566475zM682.848536 818.984233c-9.58681 13.090141-18.945332 25.649702-27.935083 37.565795 93.481117 10.715703 157.701329 32.899704 157.701329 58.513031 0 36.089454-127.429437 65.361648-284.611475 65.361648-157.183293 0-284.601441-29.272194-284.601441-65.361648 0-25.614581 64.208923-47.797328 157.688786-58.513031-8.989751-11.916092-18.345765-24.476908-27.925049-37.565795-103.291197 18.347019-173.55224 54.486646-173.55224 96.08008 0 60.173758 147.027019 108.935662 328.389944 108.935662s328.389944-48.761904 328.389944-108.935662c0-41.59218-70.261043-77.73306-173.550986-96.08008L682.848536 818.984233zM682.848536 818.984233" fill="#ecf0f1"></path></g></g></svg>