<?xml version="1.0" standalone="no"?><!DOCTYPE svg PUBLIC "-//W3C//DTD SVG 1.1//EN" "http://www.w3.org/Graphics/SVG/1.1/DTD/svg11.dtd"><svg width="200" height="200" viewBox="0 0 200 200" version="1.1" xmlns="http://www.w3.org/2000/svg" xmlns:xlink="http://www.w3.org/1999/xlink"><defs><style type="text/css"><![CDATA[
@font-face { font-family: ifont; src: url("//at.alicdn.com/t/font_1442373896_4754455.eot?#iefix") format("embedded-opentype"), url("//at.alicdn.com/t/font_1442373896_4754455.woff") format("woff"), url("//at.alicdn.com/t/font_1442373896_4754455.ttf") format("truetype"), url("//at.alicdn.com/t/font_1442373896_4754455.svg#ifont") format("svg"); }

]]></style></defs><g class="transform-group"><g transform="scale(0.1953125, 0.1953125)"><path d="M511.999488 64.424288c-169.682587 0-307.241546 137.553842-307.241546 307.241546 0 169.681564 314.790476 587.908854 314.790476 587.908854s299.692616-418.226267 299.692616-587.908854C819.235918 201.978131 681.682076 64.424288 511.999488 64.424288L511.999488 64.424288zM511.999488 475.537554c-77.381391 0-140.111085-62.73174-140.111085-140.113131 0-77.380368 62.730717-140.105968 140.111085-140.105968 77.375252 0 140.106991 62.7256 140.106991 140.105968C652.10648 412.806837 589.37474 475.537554 511.999488 475.537554L511.999488 475.537554zM511.999488 475.537554" fill="#fff"></path></g></g></svg>