<?xml version="1.0" standalone="no"?><!DOCTYPE svg PUBLIC "-//W3C//DTD SVG 1.1//EN" "http://www.w3.org/Graphics/SVG/1.1/DTD/svg11.dtd"><svg class="icon" style="" viewBox="0 0 1024 1024" version="1.1" xmlns="http://www.w3.org/2000/svg" p-id="8342" xmlns:xlink="http://www.w3.org/1999/xlink" width="200" height="200"><defs><style type="text/css"><![CDATA[

]]></style></defs><path d="M706.361151 805.13527c-44.499493 25.984814-166.483732-43.207058-261.236769-209.246675-94.753037-166.079526-93.093235-307.615053-48.400337-333.599867 38.548968-22.440082 89.924055-66.230424 127.005602 18.856463 37.084617 85.279269 4.6366 97.4341-35.227316 120.613008-27.811416 16.285918 3.168156 84.930321 38.20309 146.446373 35.033911 61.512982 78.412884 123.031081 106.225323 106.784048 39.863916-23.373337 66.554812-45.814442 120.903627 29.336142C808.144302 759.515257 744.911142 782.499737 706.361151 805.13527L706.361151 805.13527zM197.098495 63.326281c-51.181683 0-92.705402 41.880853-92.705402 93.500511l0 120.771621 18.541285 0c20.396539 0 37.08257 18.388812 37.08257 38.959314s-16.687054 38.95829-37.08257 38.95829l-18.541285 0 0 116.874871 18.541285 0c20.396539 0 37.08257 18.388812 37.08257 38.95829 0 20.570501-16.687054 38.959314-37.08257 38.959314l-18.541285 0 0 116.874871 18.541285 0c20.396539 0 37.08257 18.390859 37.08257 38.959314 0 20.764929-16.687054 38.959314-37.08257 38.959314l-18.541285 0 0 120.770598c0 51.618635 41.523719 93.500511 92.705402 93.500511l633.487935 0c51.18066 0 84.981487-41.881876 84.981487-93.500511L915.567917 156.826791c0-51.618635-33.800827-93.499487-84.981487-93.499487L197.098495 63.326281 197.098495 63.326281" p-id="8343" fill="#cdcdcd"></path></svg>