<?xml version="1.0" standalone="no"?><!DOCTYPE svg PUBLIC "-//W3C//DTD SVG 1.1//EN" "http://www.w3.org/Graphics/SVG/1.1/DTD/svg11.dtd"><svg width="200" height="200" viewBox="0 0 200 200" version="1.1" xmlns="http://www.w3.org/2000/svg" xmlns:xlink="http://www.w3.org/1999/xlink"><defs><style type="text/css"><![CDATA[
@font-face { font-family: ifont; src: url("//at.alicdn.com/t/font_1442373896_4754455.eot?#iefix") format("embedded-opentype"), url("//at.alicdn.com/t/font_1442373896_4754455.woff") format("woff"), url("//at.alicdn.com/t/font_1442373896_4754455.ttf") format("truetype"), url("//at.alicdn.com/t/font_1442373896_4754455.svg#ifont") format("svg"); }

]]></style></defs><g class="transform-group"><g transform="scale(0.1953125, 0.1953125)"><path d="M865.698113 418.424788l-71.313186-182.134177c-13.417591-34.694173-42.49279-64.317864-97.368608-64.317864l-100.728122 0c0 0-32.709983-76.276221-49.507554-76.276221l-72.64553 0c-16.799618 0-49.507554 76.276221-49.507554 76.276221l-101.911064 0c-54.81135 0-83.886549 29.622668-97.28265 64.317864l-71.335698 182.134177c-28.293393 3.592828-78.349439 36.46961-78.349439 98.674347l0 231.723595 80.230276 0 0 57.703213c0 91.152023 108.588137 90.095971 108.588137 0l0-57.703213 490.621087 0 0 57.703213c0 90.095971 108.587114 91.152023 108.587114 0l0-57.703213 80.231299 0L944.00662 517.100158C944.027086 454.894398 893.94955 422.017616 865.698113 418.424788zM250.388189 608.52438c-33.976836 0-61.550845-28.079522-61.550845-62.753229 0-34.694173 27.574009-62.775742 61.550845-62.775742s61.531402 28.081569 61.531402 62.775742C311.919591 580.444858 284.365025 608.52438 250.388189 608.52438zM227.926618 414.156578l53.69083-140.9328c6.719028-20.11513 16.777105-34.694173 40.316218-34.926464l375.947348 0c23.433712 0.232291 33.512255 14.811334 40.231283 34.926464l53.712319 140.9328L227.926618 414.156578zM769.387603 608.52438c-33.978882 0-61.531402-28.079522-61.531402-62.753229 0-34.694173 27.553543-62.775742 61.531402-62.775742 34.018791 0 61.572334 28.081569 61.572334 62.775742C830.959937 580.444858 803.406394 608.52438 769.387603 608.52438z" fill="#ffffff"></path></g></g></svg>