<?xml version="1.0" standalone="no"?><!DOCTYPE svg PUBLIC "-//W3C//DTD SVG 1.1//EN" "http://www.w3.org/Graphics/SVG/1.1/DTD/svg11.dtd"><svg width="200" height="200" viewBox="0 0 200 200" version="1.1" xmlns="http://www.w3.org/2000/svg" xmlns:xlink="http://www.w3.org/1999/xlink"><defs><style type="text/css"><![CDATA[
@font-face { font-family: ifont; src: url("//at.alicdn.com/t/font_1442373896_4754455.eot?#iefix") format("embedded-opentype"), url("//at.alicdn.com/t/font_1442373896_4754455.woff") format("woff"), url("//at.alicdn.com/t/font_1442373896_4754455.ttf") format("truetype"), url("//at.alicdn.com/t/font_1442373896_4754455.svg#ifont") format("svg"); }

]]></style></defs><g class="transform-group"><g transform="scale(0.1953125, 0.1953125)"><path d="M510.994442 958.712785c-119.647079 0-232.132814-46.59241-316.735253-131.195849-84.60244-84.60244-131.195849-197.087175-131.195849-316.735253 0-119.64588 46.59341-232.132814 131.195849-316.735253 84.603439-84.603439 197.088174-131.195849 316.735253-131.195849s232.132814 46.59241 316.735253 131.195849c84.603439 84.603439 131.195849 197.089174 131.195849 316.735253 0 119.648079-46.59241 232.132814-131.195849 316.735253C743.127256 912.120574 630.641521 958.712785 510.994442 958.712785zM510.994442 103.945317c-224.330304 0-406.836565 182.506261-406.836565 406.836565s182.506261 406.836565 406.836565 406.836565 406.837564-182.506261 406.837564-406.836565S735.325745 103.945317 510.994442 103.945317zM508.63744 775.76962c-18.15689 0-32.835338-14.718421-32.835338-32.875311l0-291.772178c0-18.158089 14.678448-32.87551 32.835338-32.87551 18.15689 0 32.835338 14.718421 32.835338 32.87551l0 291.772178C541.472977 761.050999 526.794529 775.76962 508.63744 775.76962zM464.643268 294.963007c0 24.965473 20.238478 45.203952 45.204152 45.203952 24.965473 0 45.204152-20.238478 45.204152-45.203952s-20.238478-45.204152-45.204152-45.204152C484.881746 249.759055 464.643268 269.997534 464.643268 294.963007z" fill="#ecf0f1"></path></g></g></svg>