<?xml version="1.0" standalone="no"?><!DOCTYPE svg PUBLIC "-//W3C//DTD SVG 1.1//EN" "http://www.w3.org/Graphics/SVG/1.1/DTD/svg11.dtd"><svg width="200" height="200" viewBox="0 0 200 200" version="1.1" xmlns="http://www.w3.org/2000/svg" xmlns:xlink="http://www.w3.org/1999/xlink"><defs><style type="text/css"><![CDATA[
@font-face { font-family: ifont; src: url("//at.alicdn.com/t/font_1442373896_4754455.eot?#iefix") format("embedded-opentype"), url("//at.alicdn.com/t/font_1442373896_4754455.woff") format("woff"), url("//at.alicdn.com/t/font_1442373896_4754455.ttf") format("truetype"), url("//at.alicdn.com/t/font_1442373896_4754455.svg#ifont") format("svg"); }

]]></style></defs><g class="transform-group"><g transform="scale(0.1953125, 0.1953125)"><path d="M512 62.727291c-248.043969 0-449.221545 201.075247-449.221545 449.221545 0 248.043969 201.075247 449.221545 449.221545 449.221545s449.221545-201.075247 449.221545-449.221545C961.221545 263.904867 760.043969 62.727291 512 62.727291L512 62.727291zM512 891.280104c-209.466174 0-379.331268-169.762766-379.331268-379.331268 0-209.466174 169.865094-379.331268 379.331268-379.331268 209.466174 0 379.331268 169.865094 379.331268 379.331268C891.22894 721.415009 721.466174 891.280104 512 891.280104L512 891.280104zM536.149495 488.106326 536.149495 245.895073l-70.606575 0 0 223.382832L465.54292 513.995403l0 44.717498 274.956331 0 0-70.504247L536.149495 488.208654zM536.149495 488.106326" fill="#a9b7b7"></path></g></g></svg>