<?xml version="1.0" standalone="no"?><!DOCTYPE svg PUBLIC "-//W3C//DTD SVG 1.1//EN" "http://www.w3.org/Graphics/SVG/1.1/DTD/svg11.dtd"><svg width="228.7109375" height="200" viewBox="0 0 228.7109375 200" version="1.1" xmlns="http://www.w3.org/2000/svg" xmlns:xlink="http://www.w3.org/1999/xlink"><defs><style type="text/css"><![CDATA[
@font-face { font-family: ifont; src: url("//at.alicdn.com/t/font_1442373896_4754455.eot?#iefix") format("embedded-opentype"), url("//at.alicdn.com/t/font_1442373896_4754455.woff") format("woff"), url("//at.alicdn.com/t/font_1442373896_4754455.ttf") format("truetype"), url("//at.alicdn.com/t/font_1442373896_4754455.svg#ifont") format("svg"); }

]]></style></defs><g class="transform-group"><g transform="scale(0.1953125, 0.1953125)"><path d="M585.142857 870.290286q-11.446857 0-53.138286-41.984t-41.728-53.430857q0-18.285714 35.730286-30.866286t59.136-12.580571 59.136 12.580571 35.730286 30.866286q0 11.446857-41.728 53.430857t-53.138286 41.984zM739.437714 715.446857q-1.133714 0-22.857143-14.299429t-58.002286-28.562286-73.435429-14.299429-73.435429 14.299429-57.709714 28.562286-23.149714 14.299429q-10.276571 0-53.430857-42.861714t-43.154286-53.138286q0-7.424 5.705143-13.129143 44.580571-43.995429 112.018286-69.156571t133.156571-25.161143 133.156571 25.161143 112.018286 69.156571q5.705143 5.705143 5.705143 13.129143 0 10.276571-43.154286 53.138286t-53.430857 42.861714zM895.414857 560.018286q-6.290286 0-13.129143-4.571429-77.714286-60.013714-144.018286-88.283429t-153.161143-28.269714q-48.566857 0-97.426286 12.580571t-85.138286 30.281143-64.841143 35.437714-45.129143 30.281143-17.700571 12.580571q-9.728 0-52.553143-42.861714t-42.861714-53.138286q0-6.838857 5.705143-12.580571 75.446857-75.446857 182.857143-117.138286t217.161143-41.728 217.161143 41.728 182.857143 117.138286q5.705143 5.705143 5.705143 12.580571 0 10.276571-42.861714 53.138286t-52.553143 42.861714zM1050.294857 405.138286q-6.290286 0-12.580571-5.156571-102.290286-89.709714-212.297143-135.131429t-240.274286-45.421714-240.274286 45.421714-212.297143 135.131429q-6.290286 5.156571-12.580571 5.156571-9.728 0-52.845714-42.861714t-43.154286-53.138286q0-7.424 5.705143-13.129143 106.861714-106.276571 254.281143-164.571429t301.129143-58.294857 301.129143 58.294857 254.281143 164.571429q5.705143 5.705143 5.705143 13.129143 0 10.276571-43.154286 53.138286t-52.845714 42.861714z" fill="#ffffff"></path></g></g></svg>